<svg width="160" height="41" viewBox="0 0 160 41" fill="none" xmlns="http://www.w3.org/2000/svg">
<path d="M34.8715 8.56561C35.2218 9.07462 35.5428 9.60307 35.8329 10.1484C35.8329 10.1484 36.0142 6.24479 37.9826 3.94572C37.9826 3.94572 36.7335 6.7939 36.4901 10.8654C36.4901 10.8654 37.3478 8.8823 40.671 7.65835C40.671 7.65835 42.096 4.2896 39.7396 0C38.779 0.36376 37.8707 0.852303 37.0383 1.45297C34.8524 3.03643 33.7336 5.01269 33.2031 6.14897C33.3395 6.37324 33.5543 6.7076 33.8243 7.10584C34.294 7.79087 34.5306 8.0763 34.8715 8.56561Z" fill="#75C2F9"/>
<path d="M29.6233 26.9258C29.6233 26.9258 29.6656 31.7781 29.1999 35.6606C28.7342 31.7781 28.7772 26.9258 28.7772 26.9258C17.1353 28.5296 21.9761 35.1761 23.4639 36.2512C25.407 37.6552 29.1999 40.9621 29.1999 40.9621C29.1999 40.9621 32.9935 37.6545 34.9367 36.2512C36.4244 35.1761 41.2652 28.5296 29.6233 26.9258" fill="#75C2F9"/>
<path d="M21.9077 10.8693C21.6643 6.79985 20.4152 3.94895 20.4152 3.94895C22.3836 6.2487 22.5677 10.1523 22.5677 10.1523C22.8568 9.60611 23.1768 9.07676 23.5263 8.56679C23.8672 8.07409 24.1058 7.78934 24.5708 7.10431C24.8435 6.70606 25.0528 6.3717 25.1919 6.14744C24.6642 5.01116 23.5454 3.0349 21.3595 1.45416C20.5269 0.854441 19.6187 0.366816 18.6582 0.00390625C16.3018 4.2935 17.7268 7.66225 17.7268 7.66225C21.0499 8.88552 21.9077 10.8693 21.9077 10.8693Z" fill="#75C2F9"/>
<path d="M38.3743 10.2903C37.6243 11.152 37.3407 12.3291 37.2738 13.4688C37.207 14.6084 37.3318 15.7529 37.2738 16.8932C37.2159 18.0336 36.9588 19.2127 36.2327 20.0955C39.4454 17.8875 42.2742 15.1725 44.5344 12.0015C44.1608 13.5333 43.1094 14.7233 42.0663 15.9078C39.7345 18.5542 37.3788 21.2236 34.5664 23.3453C34.5507 23.3571 34.5398 23.374 34.5354 23.3931C34.5309 23.4121 34.5334 23.4321 34.5422 23.4495C34.551 23.467 34.5657 23.4808 34.5837 23.4886C34.6017 23.4964 34.6219 23.4976 34.6407 23.4921C37.595 22.5746 40.674 21.4812 43.2431 19.7971C45.9478 18.0248 48.2046 15.3071 48.6498 12.1109C48.971 9.80711 48.1992 7.46183 47.5058 5.24023C45.759 7.01262 43.2683 7.78328 40.9542 8.70617C40.0079 9.0847 39.0452 9.52168 38.3743 10.2889" fill="#1C208F"/>
<path d="M51.7483 20.9835C50.2394 20.2951 48.5438 19.8717 46.9177 20.1938C45.2356 20.5261 43.8168 21.604 42.4095 22.5805C41.1039 23.4864 39.6605 24.3577 38.0889 24.4623C38.0749 24.4629 38.0615 24.4684 38.0512 24.4779C38.041 24.4874 38.0344 24.5003 38.0329 24.5142C38.0313 24.5281 38.0348 24.5421 38.0427 24.5537C38.0506 24.5652 38.0624 24.5736 38.076 24.5772C39.2991 24.9207 40.5723 25.0526 41.8402 24.9673C43.8468 24.8259 44.684 24.1953 46.5529 24.0954C47.5906 24.0396 49.1315 24.1382 51.0624 24.9523C49.5051 24.5201 47.8436 24.6941 46.2583 25.0101C44.6731 25.3261 43.1091 25.7828 41.4973 25.9112C38.4871 26.1511 35.3944 25.2996 32.4326 25.8847C36.5098 26.6092 39.6598 30.3123 43.7841 30.6867C46.3804 30.9226 48.8881 29.7829 51.1933 28.5698C53.4985 27.3567 55.7989 25.969 58.3959 25.7447C56.3362 23.9452 54.2369 22.1198 51.7483 20.9835Z" fill="#1C208F"/>
<path d="M25.3891 21.9879C26.6134 22.9532 27.7343 24.0421 28.7341 25.237C28.2684 21.9036 29.1997 11.5235 29.1997 11.5235C29.1997 11.5235 30.1311 21.9036 29.6654 25.237C30.6638 24.0421 31.7833 22.9533 33.0063 21.9879C35.0381 20.384 37.6201 15.1097 34.0645 9.75111C30.5088 4.39251 29.1963 2.24023 29.1963 2.24023C29.1963 2.24023 27.8859 4.39183 24.3309 9.75111C20.776 15.1104 23.3573 20.384 25.3891 21.9879Z" fill="#1C208F"/>
<path d="M15.1562 19.7965C17.7252 21.4798 20.8043 22.5733 23.7586 23.4907C23.7774 23.4962 23.7975 23.495 23.8155 23.4872C23.8335 23.4795 23.8482 23.4656 23.857 23.4482C23.8659 23.4307 23.8683 23.4108 23.8639 23.3917C23.8595 23.3727 23.8485 23.3558 23.8329 23.3439C21.0177 21.2223 18.662 18.5528 16.333 15.9065C15.2891 14.7219 14.2378 13.532 13.8641 12.0002C16.1243 15.1711 18.9532 17.8861 22.1658 20.0941C21.4397 19.2107 21.1806 18.0322 21.1247 16.8919C21.0688 15.7515 21.1929 14.6071 21.1247 13.4674C21.0565 12.3277 20.7756 11.1507 20.0243 10.2889C19.3554 9.52168 18.3879 9.0847 17.4443 8.70616C15.1303 7.78192 12.6396 7.01126 10.8928 5.24023C10.2001 7.46047 9.42828 9.80575 9.75009 12.1096C10.1953 15.3037 12.4521 18.022 15.1568 19.7965" fill="#1C208F"/>
<path d="M16.8987 25.9112C15.2869 25.7828 13.7228 25.3261 12.1376 25.0101C10.5524 24.6941 8.8908 24.5201 7.33354 24.9523C9.26443 24.1368 10.8053 24.0396 11.843 24.0954C13.7119 24.1953 14.5491 24.8259 16.5557 24.9673C17.8229 25.0524 19.0954 24.9204 20.3179 24.5772C20.3315 24.5736 20.3433 24.5652 20.3512 24.5537C20.3591 24.5421 20.3626 24.5281 20.361 24.5142C20.3594 24.5003 20.3529 24.4874 20.3426 24.4779C20.3324 24.4684 20.319 24.4629 20.305 24.4623C18.7368 24.3577 17.29 23.4864 15.9843 22.5805C14.5791 21.604 13.1589 20.5255 11.4783 20.1938C9.85079 19.8717 8.15649 20.2951 6.64764 20.9835C4.15904 22.1198 2.05975 23.9452 0 25.7447C2.59701 25.969 4.89676 27.3567 7.20264 28.5698C9.50852 29.7829 12.0155 30.9232 14.6119 30.6867C18.7361 30.3116 21.8861 26.6092 25.9633 25.8847C23.0015 25.2982 19.9088 26.1511 16.8952 25.9112" fill="#1C208F"/>
<path d="M81.468 27.1888L81.5516 16.5942H81.4893L77.6227 27.1888H75.1033L71.3561 16.5942H71.2924L71.3773 27.1888H68V12.2168H73.1037L76.485 21.8175H76.5685L79.8026 12.2168H84.9912V27.1888H81.468Z" fill="#1C208F"/>
<path d="M98.2055 22.0495V22.4724C98.2053 22.6049 98.1982 22.7372 98.1843 22.8689H90.6169C90.6419 23.1536 90.7326 23.4287 90.8821 23.6725C91.03 23.9139 91.2221 24.1255 91.4483 24.2964C91.9279 24.6599 92.5138 24.8568 93.1164 24.8567C93.5963 24.8718 94.0724 24.7664 94.5007 24.5501C94.8662 24.359 95.1835 24.0879 95.4289 23.7571L97.8157 25.2797C97.3296 25.996 96.6597 26.5692 95.8758 26.9397C94.9986 27.3428 94.0409 27.5417 93.0753 27.5212C92.3182 27.5259 91.566 27.4007 90.8516 27.1512C90.1736 26.9178 89.5495 26.5511 89.0164 26.0727C88.4819 25.5876 88.0597 24.9922 87.7793 24.3281C87.4664 23.5781 87.3124 22.7717 87.3271 21.9596C87.3158 21.1591 87.466 20.3645 87.7687 19.6229C88.0364 18.9593 88.4393 18.3583 88.9519 17.8578C89.4645 17.3573 90.0757 16.9683 90.7468 16.7152C91.4566 16.4452 92.2109 16.3107 92.9705 16.3187C93.6969 16.312 94.4175 16.4467 95.0921 16.7152C95.7208 16.9672 96.2866 17.3534 96.7496 17.8466C97.2269 18.3673 97.594 18.9787 97.8289 19.644C98.0944 20.4178 98.2218 21.2319 98.2055 22.0495V22.0495ZM95.0377 20.7172C95.0487 20.1979 94.8658 19.693 94.5246 19.3004C94.1807 18.9065 93.6667 18.7092 92.9825 18.7083C92.6659 18.704 92.3513 18.7578 92.0543 18.8669C91.7854 18.9665 91.5366 19.1133 91.3197 19.3004C91.1121 19.4815 90.9411 19.7004 90.8158 19.9454C90.696 20.1859 90.6282 20.4489 90.6169 20.7172H95.0377Z" fill="#1C208F"/>
<path d="M108.253 27.1882V25.8136H108.212C107.866 26.3588 107.366 26.7893 106.775 27.0507C106.152 27.3405 105.473 27.4886 104.786 27.4842C104.059 27.4973 103.34 27.3378 102.688 27.019C102.086 26.7204 101.554 26.2989 101.126 25.7819C100.691 25.2526 100.36 24.6464 100.15 23.995C99.9251 23.3126 99.8119 22.5986 99.8145 21.8803C99.813 21.1644 99.9313 20.4533 100.165 19.7762C100.382 19.1312 100.717 18.5317 101.152 18.0078C101.578 17.5008 102.108 17.09 102.705 16.8024C103.344 16.4997 104.044 16.3477 104.751 16.3584C105.429 16.3371 106.101 16.49 106.702 16.8024C107.17 17.049 107.589 17.3786 107.939 17.7752H107.988V11.2012H111.427V27.1935L108.253 27.1882ZM108.128 21.9015C108.128 21.5623 108.067 21.2259 107.949 20.9076C107.835 20.5909 107.664 20.2972 107.446 20.0406C107.227 19.7857 106.96 19.5772 106.659 19.4273C106.333 19.2683 105.974 19.1886 105.61 19.1947C105.24 19.187 104.874 19.2667 104.54 19.4273C104.244 19.5745 103.98 19.7794 103.765 20.03C103.552 20.2818 103.392 20.5728 103.293 20.8864C103.188 21.2075 103.135 21.5428 103.135 21.8803C103.135 22.2212 103.189 22.56 103.293 22.8848C103.391 23.205 103.552 23.5031 103.765 23.7624C103.977 24.0188 104.241 24.2277 104.54 24.3757C104.873 24.5368 105.24 24.6166 105.61 24.6083C105.974 24.615 106.333 24.5353 106.659 24.3757C106.96 24.2262 107.228 24.0176 107.446 23.7624C107.664 23.5059 107.835 23.2122 107.949 22.8954C108.067 22.5771 108.128 22.2407 108.128 21.9015V21.9015Z" fill="#1C208F"/>
<path d="M124.973 26.9227C124.007 27.3633 122.895 27.5836 121.637 27.5836C120.549 27.5951 119.469 27.4013 118.454 27.0126C117.508 26.6512 116.646 26.0992 115.924 25.3911C115.201 24.6829 114.632 23.8339 114.254 22.8969C113.437 20.8143 113.44 18.5006 114.264 16.4207C114.653 15.4821 115.235 14.6355 115.973 13.9359C116.712 13.2456 117.582 12.7099 118.532 12.3605C120.555 11.6236 122.774 11.6274 124.794 12.371C125.741 12.7005 126.59 13.2644 127.259 14.0099L124.828 16.4656C124.494 16.0019 124.034 15.6426 123.502 15.4294C122.971 15.2071 122.401 15.0921 121.825 15.0911C121.229 15.0841 120.639 15.2031 120.093 15.44C119.581 15.6647 119.12 15.9922 118.741 16.4022C118.355 16.8251 118.056 17.3189 117.86 17.856C117.645 18.4416 117.538 19.0615 117.545 19.6852C117.537 20.3194 117.644 20.9497 117.86 21.5461C118.052 22.0829 118.347 22.5769 118.73 23C119.103 23.404 119.557 23.7248 120.063 23.941C120.599 24.1707 121.178 24.2859 121.761 24.2794C122.409 24.2949 123.051 24.1496 123.628 23.8564C124.136 23.5956 124.574 23.2188 124.908 22.7568L127.405 25.1252C126.733 25.892 125.904 26.5052 124.973 26.9227V26.9227Z" fill="#1C208F"/>
<path d="M135.627 27.1893V25.7355H135.585C135.453 25.9829 135.288 26.2107 135.093 26.4122C134.881 26.6275 134.639 26.8109 134.374 26.9567C134.089 27.1173 133.786 27.245 133.471 27.3374C133.134 27.4375 132.785 27.4874 132.433 27.4854C131.82 27.5046 131.212 27.3739 130.662 27.1048C130.2 26.8695 129.799 26.5334 129.487 26.1214C129.181 25.7105 128.96 25.2433 128.836 24.7469C128.703 24.2322 128.636 23.7028 128.637 23.1714V16.6582H132.098V22.3705C132.097 22.6537 132.118 22.9365 132.161 23.2164C132.197 23.4687 132.279 23.7123 132.403 23.9354C132.513 24.1395 132.676 24.3108 132.875 24.4323C133.111 24.5628 133.38 24.625 133.65 24.6121C134.251 24.6121 134.708 24.3865 135.024 23.9354C135.343 23.4687 135.508 22.9141 135.496 22.3494V16.6661H138.944V27.1973L135.627 27.1893Z" fill="#1C208F"/>
<path d="M148.403 19.5121C148.255 19.4711 148.104 19.4428 147.952 19.4275C147.805 19.4143 147.662 19.4063 147.522 19.4063C147.119 19.3932 146.719 19.4804 146.358 19.6601C146.067 19.8095 145.809 20.0174 145.602 20.2707C145.417 20.5028 145.279 20.7679 145.194 21.0518C145.114 21.29 145.07 21.5384 145.061 21.7893V27.1884H141.627V16.6705H144.942V18.193H144.983C145.24 17.6627 145.63 17.2075 146.115 16.8714C146.614 16.5276 147.208 16.3487 147.814 16.3599C147.947 16.3599 148.09 16.3678 148.224 16.381C148.334 16.391 148.443 16.4123 148.549 16.4445L148.403 19.5121Z" fill="#1C208F"/>
<path d="M159.919 22.0481V22.4711C159.919 22.6035 159.912 22.7359 159.897 22.8676H152.325C152.35 23.1522 152.44 23.4273 152.59 23.6711C152.738 23.9125 152.93 24.1242 153.156 24.295C153.636 24.658 154.222 24.8548 154.824 24.8554C155.304 24.8704 155.78 24.765 156.209 24.5487C156.574 24.358 156.892 24.0868 157.137 23.7557L159.523 25.2783C159.037 25.9967 158.365 26.5717 157.58 26.9436C156.702 27.3468 155.745 27.5456 154.779 27.5252C154.022 27.5296 153.27 27.4044 152.555 27.1551C151.878 26.9214 151.254 26.5547 150.72 26.0766C150.186 25.5911 149.764 24.9959 149.483 24.332C149.171 23.5819 149.017 22.7755 149.032 21.9635C149.021 21.1631 149.17 20.3685 149.472 19.6268C149.741 18.9635 150.144 18.3627 150.656 17.8623C151.169 17.3619 151.78 16.9727 152.451 16.7191C153.16 16.4491 153.915 16.3146 154.674 16.3226C155.401 16.3159 156.121 16.4506 156.796 16.7191C157.425 16.9707 157.991 17.357 158.453 17.8505C158.931 18.3712 159.298 18.9826 159.533 19.6479C159.801 20.4195 159.931 21.2318 159.919 22.0481ZM156.751 20.7159C156.762 20.1965 156.579 19.6916 156.238 19.299C155.894 18.9052 155.38 18.7078 154.696 18.7069C154.379 18.7026 154.064 18.7564 153.767 18.8655C153.498 18.9651 153.25 19.1119 153.033 19.299C152.826 19.4802 152.655 19.6991 152.53 19.944C152.406 20.1837 152.335 20.4467 152.319 20.7159H156.751Z" fill="#1C208F"/>
</svg>
